<svg width="35" height="36" viewBox="0 0 35 36" fill="none" xmlns="http://www.w3.org/2000/svg">
<path d="M13.8002 0.400024C6.29707 0.400024 0.200195 6.4969 0.200195 14C0.200195 21.5031 6.29707 27.6 13.8002 27.6C16.7689 27.6 19.5127 26.6438 21.7502 25.025L32.2752 35.525L34.5252 33.275L24.1252 22.85C26.1689 20.4688 27.4002 17.3781 27.4002 14C27.4002 6.4969 21.3033 0.400024 13.8002 0.400024ZM13.8002 2.00002C20.4377 2.00002 25.8002 7.36252 25.8002 14C25.8002 20.6375 20.4377 26 13.8002 26C7.1627 26 1.8002 20.6375 1.8002 14C1.8002 7.36252 7.1627 2.00002 13.8002 2.00002Z" fill="white"/>
</svg>
